<?xml version="1.0" encoding="UTF-8"?>
<svg width="854px" height="854px" viewBox="0 0 854 854" version="1.1" xmlns="http://www.w3.org/2000/svg" xmlns:xlink="http://www.w3.org/1999/xlink">
    <!-- Generator: Sketch 43.2 (39069) - http://www.bohemiancoding.com/sketch -->
    <title>midwifestats-logo</title>
    <desc>Created with Sketch.</desc>
    <defs></defs>
    <g id="Page-1" stroke="none" stroke-width="1" fill="none" fill-rule="evenodd">
        <g id="angular-icon" transform="translate(22.000000, 0.000000)" fill-rule="nonzero">
            <polygon id="Shape" fill="#B3B3B3" points="402.353924 0.0805501942 0.690284794 141.436162 64.1638946 667.67995 402.778539 853.788085 743.142344 665.15761 806.590604 138.932835"></polygon>
            <polygon id="Shape" fill="#00122B" points="766.527858 169.346678 401.415968 44.8394109 401.415968 809.32392 707.395462 639.981741 766.52469 169.346678"></polygon>
            <polygon id="Shape" fill="#002F56" points="45.7628536 171.590167 100.154772 642.231567 401.409631 809.32392 401.409631 44.8267358 45.7660224 171.586998"></polygon>
        </g>
        <g id="uterus" transform="translate(102.000000, 204.000000)" fill-rule="nonzero" fill="#FFFFFF">
            <path d="M528.09431,0.00520474168 C495.171672,0.00520474168 470.533029,16.098266 448.813558,30.2811871 L444.406181,33.1489997 C416.978455,51.0429016 385.88225,71.3101657 325.230082,71.3101657 C264.525878,71.3101657 233.398453,50.9908542 205.934302,33.0709286 L201.625791,30.2499586 C179.906321,16.0826518 155.272882,0 122.376261,0 C54.8918776,0.00520474168 0,54.9204342 0,122.415524 C0,158.827897 16.0476396,193.106326 44.0477528,216.480821 C45.7232845,217.886101 47.5913463,218.973892 49.5322573,219.874312 C53.7471043,232.339668 62.2392405,242.702309 73.848282,249.281103 C81.934544,253.86648 91.0979335,256.297094 100.339376,256.297094 C113.519879,256.297094 126.159216,251.44107 135.92101,242.629443 C139.100358,239.76163 141.301444,235.868483 142.118396,231.663052 C143.627415,223.871554 143.346426,215.668881 141.311851,207.965863 C137.591338,193.949494 128.573647,182.270054 115.903089,175.08751 C107.801216,170.481314 98.6222159,168.02988 89.3599596,168.02988 C82.8711766,168.02988 76.5176851,169.221766 70.5856782,171.475419 C64.9710857,164.589546 50.7706939,144.910418 50.7706939,122.415524 C50.7706939,82.9115349 82.8919907,50.7774598 122.376261,50.7774598 C136.134354,50.7774598 148.72686,56.8826218 163.374754,66.0377624 C190.427827,83.2446384 192.987957,98.0833569 198.082198,127.64629 C201.391633,146.862196 205.512817,170.777984 218.001252,199.003298 C232.139202,230.99164 249.935223,253.038926 265.665448,272.483841 C286.234942,297.950642 299.810912,314.761958 299.810912,344.361324 L299.810912,420.89705 C299.810912,434.90301 311.22222,446.290985 325.219675,446.290985 C339.21713,446.290985 350.628438,434.90301 350.628438,420.89705 L350.628438,344.361324 C350.628438,314.756753 364.230425,297.929823 384.81553,272.457817 C400.524941,253.023312 418.315758,230.99164 432.464115,199.018912 C444.947347,170.793598 449.058123,146.88822 452.362355,127.682723 C457.451393,98.1458138 460.016726,83.3175048 486.903287,66.1730857 C501.655251,56.9450787 514.299792,50.7878693 528.09431,50.7878693 C567.557766,50.7878693 599.668656,82.9219444 599.668656,122.425934 C599.668656,141.095342 592.597079,158.479179 579.827654,171.818932 C573.645878,169.357089 566.995786,168.035085 560.205199,168.035085 C550.95335,168.035085 541.769147,170.491723 533.672478,175.082305 C520.996715,182.270054 511.979024,193.954699 508.258511,207.971068 C506.218733,215.67929 505.942947,223.876758 507.451966,231.668257 C508.263715,235.868483 510.464802,239.77204 513.638946,242.624238 C523.41635,251.446275 536.050484,256.302299 549.230987,256.302299 C558.467226,256.302299 567.635819,253.871685 575.722081,249.286307 C587.201034,242.769971 595.646339,232.568677 599.908017,220.280282 C602.213174,219.3122 604.409058,218.135928 606.365579,216.49123 C634.376099,193.179192 650.43935,158.895559 650.43935,122.415524 C650.43935,54.9204342 595.552675,0.00520474168 528.09431,0.00520474168 Z" id="Shape"></path>
        </g>
    </g>
</svg>